<svg width="30" height="30" viewBox="0 0 30 30" fill="none" xmlns="http://www.w3.org/2000/svg">
<g clip-path="url(#clip0_1160_8)">
<path d="M23.1522 19.1602C24.275 17.316 24.8688 15.1986 24.8687 13.0395C24.8687 6.49886 19.5763 1.20256 13.0344 1.19995C6.49827 1.20191 1.20001 6.49886 1.20001 13.0382C1.20001 19.5717 6.49893 24.868 13.0383 24.868C15.2818 24.868 17.372 24.2341 19.1583 23.1508L27.2081 31.2L31.2 27.206L23.1522 19.1602ZM13.037 20.3608C8.99219 20.351 5.72219 17.0823 5.71501 13.046C5.71777 11.1049 6.49003 9.24396 7.86253 7.87122C9.23503 6.49848 11.0958 5.72588 13.037 5.72278C17.0798 5.73321 20.3511 9.00191 20.3596 13.046C20.3511 17.0778 17.0785 20.351 13.037 20.3608V20.3608Z" fill="#F60094"/>
</g>
<defs>
<clipPath id="clip0_1160_8">
<rect width="30" height="30" fill="white"/>
</clipPath>
</defs>
</svg>
